<?xml version="1.0" encoding="utf-8"?><!-- Uploaded to: SVG Repo, www.svgrepo.com, Generator: SVG Repo Mixer Tools -->
<svg version="1.1" id="Uploaded to svgrepo.com" xmlns="http://www.w3.org/2000/svg" xmlns:xlink="http://www.w3.org/1999/xlink" 
	 width="800px" height="800px" viewBox="0 0 32 32" xml:space="preserve">
<style type="text/css">
	.stone_een{fill:#0B1719;}
</style>
<path class="stone_een" d="M25.636,16.779c0.064,0.573-0.113,1.125-0.497,1.555C24.754,18.763,24.225,19,23.648,19H8.352
	c-0.576,0-1.106-0.237-1.49-0.666c-0.385-0.43-0.561-0.982-0.497-1.555l0.333-3C6.81,12.765,7.665,12,8.685,12h14.63
	c1.021,0,1.875,0.765,1.988,1.779L25.636,16.779z M31,10h-1.546l0.778,7H31c0.552,0,1-0.448,1-1v-5C32,10.448,31.552,10,31,10z
	 M1,10c-0.552,0-1,0.448-1,1v5c0,0.552,0.448,1,1,1h0.768l0.778-7H1z M29.691,21.218c0.174,1.567-0.894,3.001-2.445,3.283
	l-6.699,1.218c-0.179,0.032-0.358,0.048-0.537,0.048c-0.788,0-1.554-0.311-2.121-0.879l-0.474-0.474
	c-0.391-0.391-0.902-0.586-1.414-0.586c-0.512,0-1.024,0.195-1.414,0.586l-0.475,0.475c-0.568,0.568-1.333,0.879-2.121,0.879
	c-0.178,0-0.358-0.016-0.537-0.048l-6.699-1.218c-1.551-0.282-2.619-1.716-2.445-3.283L3.703,8.669C3.872,7.149,5.156,6,6.685,6
	h18.63c1.529,0,2.813,1.149,2.982,2.669L29.691,21.218z M9,9c0,0.552,0.448,1,1,1s1-0.448,1-1c0-0.552-0.448-1-1-1S9,8.448,9,9z
	 M6,9c0,0.552,0.448,1,1,1s1-0.448,1-1c0-0.552-0.448-1-1-1S6,8.448,6,9z M26.63,16.669l-0.333-3C26.128,12.149,24.844,11,23.315,11
	H8.685c-1.529,0-2.813,1.149-2.982,2.669l-0.333,3C5.173,18.446,6.564,20,8.352,20h15.296C25.436,20,26.827,18.446,26.63,16.669z"/>
</svg>